<?xml version="1.0" encoding="iso-8859-1"?>
<!-- Generator: Adobe Illustrator 19.0.0, SVG Export Plug-In . SVG Version: 6.00 Build 0)  -->
<svg version="1.1" id="Capa_1" xmlns="http://www.w3.org/2000/svg" xmlns:xlink="http://www.w3.org/1999/xlink" x="0px" y="0px"
	 viewBox="0 0 512 512" style="enable-background:new 0 0 512 512;" xml:space="preserve">
<style type="text/css">
  .color{fill:#fdfdfd;}
</style>
<g>
	<g>
		<path class="color" d="M326.427,256.001c16.767-13.046,27.585-33.396,27.585-56.235c0-34.605-24.81-63.513-57.573-69.904V111.4
			c0-8.284-6.716-15-15-15s-15,6.716-15,15v17.133h-11.777h-38.556V111.4c0-8.284-6.716-15-15-15s-15,6.716-15,15v17.133h-13.117
			c-8.284,0-15,6.716-15,15s6.716,15,15,15h13.117V256v97.467h-13.117c-8.284,0-15,6.716-15,15s6.716,15,15,15h13.117V400.6
			c0,8.284,6.716,15,15,15s15-6.716,15-15v-17.133h38.556h11.777V400.6c0,8.284,6.716,15,15,15s15-6.716,15-15v-18.461
			c32.764-6.392,57.573-35.301,57.573-69.906C354.012,289.393,343.194,269.045,326.427,256.001z M216.105,240.999v-82.466h38.556
			h28.117c22.736,0,41.233,18.497,41.233,41.232c0,22.736-18.497,41.234-41.233,41.234H216.105z M282.779,353.466h-28.117h-38.556
			V271h66.673c22.736,0,41.233,18.497,41.233,41.232C324.012,334.968,305.515,353.466,282.779,353.466z"/>
	</g>
</g>
<g>
	<g>
		<path class="color" d="M437.019,74.98C388.667,26.629,324.38,0,256,0S123.332,26.629,74.98,74.98C26.629,123.333,0,187.62,0,256
			c0,68.381,26.629,132.668,74.98,181.02C123.332,485.371,187.62,512,256,512s132.667-26.629,181.019-74.98
			C485.371,388.668,512,324.381,512,256C512,187.62,485.371,123.333,437.019,74.98z M256,482C131.383,482,30,380.617,30,256
			S131.383,30,256,30s226,101.383,226,226S380.617,482,256,482z"/>
	</g>
</g>
<g>
</g>
<g>
</g>
<g>
</g>
<g>
</g>
<g>
</g>
<g>
</g>
<g>
</g>
<g>
</g>
<g>
</g>
<g>
</g>
<g>
</g>
<g>
</g>
<g>
</g>
<g>
</g>
<g>
</g>
</svg>
